<mxfile host="app.diagrams.net" modified="2021-07-07T10:11:01.665Z" agent="5.0 (Macintosh; Intel Mac OS X 10_15_7) AppleWebKit/537.36 (KHTML, like Gecko) Chrome/91.0.4472.114 Safari/537.36" etag="eXPgvvxZs2QpGtO90rDC" version="14.8.4" type="github">
  <diagram id="prtHgNgQTEPvFCAcTncT" name="Page-1">
    <mxGraphModel dx="1186" dy="796" grid="1" gridSize="10" guides="1" tooltips="1" connect="1" arrows="1" fold="1" page="1" pageScale="1" pageWidth="827" pageHeight="1169" math="0" shadow="0">
      <root>
        <mxCell id="0" />
        <mxCell id="1" parent="0" />
        <mxCell id="a5wKaRRYHODb6AsDszUi-16" value="" style="rounded=1;whiteSpace=wrap;html=1;" vertex="1" parent="1">
          <mxGeometry x="447.5" y="400" width="205" height="210" as="geometry" />
        </mxCell>
        <mxCell id="a5wKaRRYHODb6AsDszUi-17" value="openShift" style="text;html=1;align=center;verticalAlign=middle;resizable=0;points=[];autosize=1;strokeColor=none;" vertex="1" parent="1">
          <mxGeometry x="515" y="410" width="70" height="20" as="geometry" />
        </mxCell>
        <mxCell id="a5wKaRRYHODb6AsDszUi-14" value="" style="rounded=1;whiteSpace=wrap;html=1;" vertex="1" parent="1">
          <mxGeometry x="130" y="400" width="250" height="210" as="geometry" />
        </mxCell>
        <mxCell id="a5wKaRRYHODb6AsDszUi-12" value="" style="rounded=1;whiteSpace=wrap;html=1;" vertex="1" parent="1">
          <mxGeometry x="470" y="450" width="160" height="130" as="geometry" />
        </mxCell>
        <mxCell id="a5wKaRRYHODb6AsDszUi-13" value="istio" style="text;html=1;align=center;verticalAlign=middle;resizable=0;points=[];autosize=1;strokeColor=none;" vertex="1" parent="1">
          <mxGeometry x="540" y="450" width="40" height="20" as="geometry" />
        </mxCell>
        <mxCell id="a5wKaRRYHODb6AsDszUi-10" value="" style="rounded=1;whiteSpace=wrap;html=1;" vertex="1" parent="1">
          <mxGeometry x="175" y="440" width="170" height="140" as="geometry" />
        </mxCell>
        <mxCell id="a5wKaRRYHODb6AsDszUi-1" value="ксш" style="rounded=0;whiteSpace=wrap;html=1;" vertex="1" parent="1">
          <mxGeometry x="80" y="100" width="120" height="80" as="geometry" />
        </mxCell>
        <mxCell id="a5wKaRRYHODb6AsDszUi-2" value="брокеер" style="rounded=0;whiteSpace=wrap;html=1;" vertex="1" parent="1">
          <mxGeometry x="430" y="100" width="120" height="80" as="geometry" />
        </mxCell>
        <mxCell id="a5wKaRRYHODb6AsDszUi-3" value="" style="shape=flexArrow;endArrow=classic;startArrow=classic;html=1;entryX=0;entryY=0.5;entryDx=0;entryDy=0;exitX=1;exitY=0.5;exitDx=0;exitDy=0;" edge="1" parent="1" source="a5wKaRRYHODb6AsDszUi-1" target="a5wKaRRYHODb6AsDszUi-2">
          <mxGeometry width="100" height="100" relative="1" as="geometry">
            <mxPoint x="260" y="190" as="sourcePoint" />
            <mxPoint x="360" y="90" as="targetPoint" />
            <Array as="points">
              <mxPoint x="310" y="140" />
            </Array>
          </mxGeometry>
        </mxCell>
        <mxCell id="a5wKaRRYHODb6AsDszUi-4" value="restAPi" style="text;html=1;align=center;verticalAlign=middle;resizable=0;points=[];autosize=1;strokeColor=none;" vertex="1" parent="1">
          <mxGeometry x="275" y="100" width="50" height="20" as="geometry" />
        </mxCell>
        <mxCell id="a5wKaRRYHODb6AsDszUi-6" value="ксш" style="rounded=0;whiteSpace=wrap;html=1;" vertex="1" parent="1">
          <mxGeometry x="200" y="480" width="120" height="80" as="geometry" />
        </mxCell>
        <mxCell id="a5wKaRRYHODb6AsDszUi-7" value="брокеер" style="rounded=0;whiteSpace=wrap;html=1;" vertex="1" parent="1">
          <mxGeometry x="500" y="480" width="120" height="80" as="geometry" />
        </mxCell>
        <mxCell id="a5wKaRRYHODb6AsDszUi-8" value="" style="shape=flexArrow;endArrow=classic;startArrow=classic;html=1;exitX=1;exitY=0.5;exitDx=0;exitDy=0;" edge="1" parent="1" source="a5wKaRRYHODb6AsDszUi-6">
          <mxGeometry width="100" height="100" relative="1" as="geometry">
            <mxPoint x="380" y="570" as="sourcePoint" />
            <mxPoint x="500" y="520" as="targetPoint" />
            <Array as="points">
              <mxPoint x="430" y="520" />
            </Array>
          </mxGeometry>
        </mxCell>
        <mxCell id="a5wKaRRYHODb6AsDszUi-9" value="restAPi" style="text;html=1;align=center;verticalAlign=middle;resizable=0;points=[];autosize=1;strokeColor=none;" vertex="1" parent="1">
          <mxGeometry x="395" y="480" width="50" height="20" as="geometry" />
        </mxCell>
        <mxCell id="a5wKaRRYHODb6AsDszUi-11" value="istio" style="text;html=1;align=center;verticalAlign=middle;resizable=0;points=[];autosize=1;strokeColor=none;" vertex="1" parent="1">
          <mxGeometry x="240" y="450" width="40" height="20" as="geometry" />
        </mxCell>
        <mxCell id="a5wKaRRYHODb6AsDszUi-15" value="openshift" style="text;html=1;align=center;verticalAlign=middle;resizable=0;points=[];autosize=1;strokeColor=none;" vertex="1" parent="1">
          <mxGeometry x="230" y="410" width="60" height="20" as="geometry" />
        </mxCell>
        <mxCell id="a5wKaRRYHODb6AsDszUi-18" value="Synaps" style="text;html=1;align=center;verticalAlign=middle;resizable=0;points=[];autosize=1;strokeColor=none;" vertex="1" parent="1">
          <mxGeometry x="387.5" y="340" width="60" height="20" as="geometry" />
        </mxCell>
      </root>
    </mxGraphModel>
  </diagram>
</mxfile>
